<?xml version="1.0" standalone="no"?>
<!DOCTYPE svg PUBLIC "-//W3C//DTD SVG 20010904//EN"
 "http://www.w3.org/TR/2001/REC-SVG-20010904/DTD/svg10.dtd">
<svg version="1.0" xmlns="http://www.w3.org/2000/svg"
 width="800.000000pt" height="800.000000pt" viewBox="0 0 800.000000 800.000000"
 preserveAspectRatio="xMidYMid meet">
<metadata>
Created by potrace 1.11, written by Peter Selinger 2001-2013
</metadata>
<g transform="translate(0.000000,800.000000) scale(0.100000,-0.100000)"
fill="#000000" stroke="none">
<path d="M3975 7774 c-5 -16 -9 -31 -10 -34 -1 -6 -64 -200 -71 -220 -3 -8 -4
-15 -3 -15 1 0 -6 -18 -15 -40 -10 -22 -17 -42 -17 -45 1 -4 -16 -58 -45 -150
-3 -8 -5 -15 -4 -15 1 0 -4 -13 -10 -30 -7 -16 -13 -37 -15 -45 -2 -8 -10 -33
-18 -55 -21 -54 -121 -366 -123 -385 -2 -8 -14 -46 -27 -85 -14 -38 -60 -178
-102 -310 -42 -132 -87 -271 -100 -310 -35 -105 -178 -548 -181 -560 -1 -5
-15 -50 -31 -100 -16 -49 -58 -179 -93 -287 -44 -134 -69 -198 -79 -200 -9 -2
-692 -3 -1518 -3 -827 1 -1503 -2 -1503 -5 1 -3 58 -45 127 -95 69 -49 132
-96 139 -102 7 -7 15 -13 19 -13 5 0 80 -55 95 -70 3 -3 13 -9 22 -15 9 -5
137 -98 283 -205 146 -107 274 -199 283 -205 9 -5 19 -12 22 -16 3 -3 27 -21
55 -40 47 -33 74 -52 99 -74 7 -5 19 -14 28 -20 16 -10 540 -390 723 -525 50
-36 131 -95 180 -131 50 -35 99 -72 109 -81 11 -10 23 -18 27 -18 4 0 14 -6
21 -13 7 -7 66 -51 131 -97 107 -77 117 -87 111 -110 -3 -14 -7 -29 -9 -35 -1
-5 -5 -17 -8 -25 -6 -15 -97 -297 -101 -315 -2 -5 -6 -17 -9 -25 -7 -20 -30
-92 -33 -105 -1 -5 -9 -29 -18 -53 -8 -23 -16 -46 -17 -50 -4 -17 -169 -534
-177 -552 -3 -8 -6 -19 -7 -25 0 -5 -3 -14 -6 -20 -5 -8 -15 -41 -24 -75 -3
-12 -47 -147 -54 -165 -13 -32 -71 -219 -71 -227 0 -4 -5 -19 -12 -35 -6 -15
-12 -32 -14 -38 -1 -5 -12 -39 -24 -75 -12 -36 -23 -72 -25 -80 -2 -8 -21 -69
-43 -135 -22 -66 -68 -208 -102 -315 -34 -107 -65 -202 -68 -210 -3 -8 -6 -17
-7 -20 -1 -3 -4 -12 -7 -20 -12 -30 -78 -245 -78 -252 0 -20 35 -3 116 57 49
35 95 70 103 76 8 7 37 28 65 48 28 19 59 43 70 53 11 10 23 18 26 18 4 0 18
9 31 20 13 11 29 23 34 28 6 4 42 30 80 57 39 27 75 54 81 60 6 5 22 18 35 27
13 10 82 61 154 114 71 52 142 103 157 112 16 9 28 19 28 22 0 3 18 16 40 30
22 14 40 28 40 32 0 5 5 8 10 8 6 0 18 7 28 16 9 8 73 57 142 107 69 50 162
118 206 151 45 34 92 69 105 78 19 14 293 215 423 311 17 12 58 43 93 69 34
27 65 48 68 48 3 0 16 9 28 20 19 18 165 125 254 188 l33 23 42 -33 c24 -18
45 -35 48 -38 3 -3 29 -23 59 -44 30 -21 59 -43 65 -48 6 -5 61 -46 121 -90
61 -45 116 -88 123 -95 7 -7 17 -13 21 -13 4 0 16 -8 27 -18 10 -9 37 -30 59
-47 22 -16 45 -33 50 -37 6 -4 39 -29 75 -55 36 -26 70 -51 75 -56 6 -4 116
-87 245 -183 129 -96 242 -180 250 -187 8 -7 58 -43 110 -82 52 -38 100 -73
105 -77 35 -29 56 -45 75 -58 19 -14 331 -245 390 -290 14 -10 68 -51 120 -89
52 -39 106 -79 120 -90 14 -10 59 -44 100 -75 41 -30 80 -60 87 -66 13 -11 43
-14 43 -4 0 3 -14 52 -32 107 -18 56 -33 104 -33 107 -1 3 -4 12 -8 20 -7 20
-128 398 -129 407 -1 5 -12 36 -24 71 -13 34 -20 62 -17 62 3 0 1 6 -4 13 -6
6 -14 26 -18 42 -9 34 -10 35 -18 55 -3 8 -13 42 -23 75 -9 33 -22 66 -27 73
-5 6 -7 12 -3 12 3 0 0 15 -7 32 -8 18 -15 36 -15 41 -1 4 -3 9 -3 12 -1 3 -3
10 -4 15 -1 6 -4 12 -5 15 -1 3 -3 8 -4 13 -1 4 -10 30 -19 58 -10 28 -19 59
-22 70 -2 10 -13 44 -24 74 -11 30 -47 143 -81 250 -34 107 -65 204 -70 215
-5 11 -27 81 -50 155 -23 74 -44 142 -48 150 -3 8 -7 20 -8 25 -1 6 -3 13 -4
18 -1 4 -3 10 -5 15 -1 4 -7 21 -14 37 -7 17 -15 41 -17 54 -3 13 -9 31 -13
40 -5 9 -9 18 -8 21 0 6 -22 79 -33 105 -4 11 -29 88 -55 170 -26 83 -49 157
-52 165 -3 8 -7 20 -8 26 -2 6 -6 21 -10 33 -4 15 -2 27 8 34 8 7 116 86 239
176 122 91 228 170 235 175 32 28 43 36 47 36 5 0 68 47 161 118 6 4 44 32 85
61 41 30 77 57 80 60 3 3 12 11 21 16 38 23 354 259 357 267 2 4 10 8 17 8 7
0 15 3 17 8 2 4 28 25 58 47 30 22 60 43 65 48 6 4 57 42 115 84 58 42 107 80
108 85 2 4 10 8 17 8 7 0 15 3 17 8 2 6 58 49 153 116 47 34 230 171 235 176
3 3 13 10 22 15 25 15 350 256 370 275 16 15 -110 16 -1500 16 l-1517 0 -36
109 c-20 61 -74 225 -118 365 -45 140 -85 262 -88 270 -3 8 -8 26 -10 40 -2
13 -8 29 -13 36 -5 6 -11 19 -13 30 -2 10 -12 46 -22 79 -11 33 -18 63 -17 68
1 4 -2 7 -7 7 -7 0 -16 29 -25 80 -1 3 -6 19 -13 35 -10 26 -58 175 -134 415
-11 36 -23 72 -26 80 -4 8 -7 18 -8 23 -2 4 -3 8 -5 10 -1 1 -3 9 -5 17 -2 8
-21 71 -44 140 -22 69 -48 150 -57 180 -9 30 -26 80 -36 110 -11 30 -21 62
-23 70 -2 8 -19 62 -38 120 -19 58 -67 206 -107 330 -39 124 -77 242 -84 264
l-13 39 -8 -29z"/>
</g>
</svg>
